<?xml version="1.0" standalone="no"?>
<!DOCTYPE svg PUBLIC "-//W3C//DTD SVG 20010904//EN"
        "http://www.w3.org/TR/2001/REC-SVG-20010904/DTD/svg10.dtd">
<svg version="1.0" xmlns="http://www.w3.org/2000/svg"
     width="503.000000pt" height="454.000000pt" viewBox="0 0 503.000000 454.000000"
     preserveAspectRatio="xMidYMid meet">

    <g transform="translate(0.000000,454.000000) scale(0.100000,-0.100000)"
       fill="#FFF" stroke="none">
        <path d="M785 4422 c-105 -45 -169 -104 -212 -197 l-28 -60 -5 -1105 -5 -1105
-245 -1 c-135 -1 -251 -2 -257 -3 -10 -1 -13 -30 -13 -110 0 -96 2 -110 17
-114 10 -3 70 -3 133 -1 63 2 1162 5 2442 8 1280 2 2332 7 2337 11 7 4 11 46
11 104 l0 99 -32 6 c-17 3 -132 3 -255 0 -132 -4 -223 -3 -223 2 0 5 -1 500
-3 1099 l-2 1090 -22 54 c-45 110 -108 175 -211 217 l-57 24 -1665 -1 c-1546
0 -1668 -1 -1705 -17z m3362 -212 c25 -11 51 -33 63 -52 20 -33 20 -48 20
-1115 l0 -1083 -165 0 c-91 0 -165 2 -165 5 0 3 7 16 14 28 40 61 46 127 46
532 0 298 -3 395 -12 407 -14 17 -56 30 -62 19 -3 -4 -10 -157 -16 -341 -12
-372 -14 -379 -80 -412 -30 -15 -65 -18 -241 -18 l-207 0 -61 45 -61 45 -730
0 -731 0 -50 -40 c-28 -22 -61 -43 -73 -46 -12 -3 -115 -4 -229 -2 l-207 3
-31 32 c-42 41 -46 73 -55 435 -7 307 -10 321 -54 298 -11 -6 -25 -22 -30 -36
-12 -32 -13 -694 -1 -787 5 -38 20 -91 34 -118 l24 -49 -169 0 -168 0 0 1063
c0 661 4 1075 10 1096 12 41 45 79 85 97 25 11 321 13 1645 13 1571 1 1616 0
1657 -19z m-686 -2167 c9 -27 19 -56 23 -65 8 -17 -43 -18 -992 -18 l-1000 0
18 48 c11 26 21 55 24 65 5 16 59 17 959 17 l953 0 15 -47z"/>
        <path d="M1355 4063 c-14 -21 -58 -136 -97 -255 -43 -129 -78 -218 -85 -218
-7 0 -23 21 -35 48 l-23 47 -86 3 c-72 2 -88 0 -100 -15 -22 -25 -59 -129 -59
-164 0 -38 16 -44 149 -63 56 -8 105 -16 107 -19 2 -2 -26 -92 -63 -200 -57
-170 -65 -200 -55 -222 l12 -25 55 45 56 45 100 -50 c107 -54 108 -54 339 -74
l155 -14 92 -51 92 -51 584 0 584 0 99 55 c82 46 107 55 149 55 28 0 114 7
192 15 135 14 146 16 232 60 50 25 98 45 107 45 9 0 34 -16 56 -36 84 -75 85
-25 7 211 -41 125 -58 189 -51 194 6 4 55 12 109 20 102 13 143 30 143 59 0
20 -49 152 -63 170 -6 8 -38 12 -93 12 -92 0 -110 -10 -121 -62 -7 -33 -31
-48 -44 -27 -4 8 -36 97 -70 199 -33 102 -70 203 -80 225 -23 50 -47 81 -55
72 -8 -8 -1 -33 116 -450 58 -205 89 -332 84 -337 -15 -15 -210 -48 -409 -70
-169 -19 -227 -20 -940 -15 -743 6 -928 13 -1050 40 -33 7 -93 18 -132 25 -40
6 -75 15 -78 20 -2 4 7 47 20 96 14 49 32 114 41 144 8 30 22 78 30 105 25 84
124 436 124 441 0 15 -23 -2 -45 -33z m2325 -891 c36 -45 18 -112 -37 -133
-28 -11 -352 -44 -359 -36 -9 9 65 162 83 169 25 11 243 35 271 30 12 -3 31
-16 42 -30z m-2161 18 c41 -6 85 -17 98 -25 26 -17 96 -158 81 -164 -20 -7
-344 32 -369 45 -45 23 -54 91 -17 131 25 26 78 30 207 13z m1656 -60 c0 -13
-82 -15 -665 -17 -369 -2 -671 1 -679 6 -45 29 9 31 672 29 590 -3 672 -5 672
-18z m-65 -95 c0 -13 -74 -15 -610 -15 -536 0 -610 2 -610 15 0 13 74 15 610
15 536 0 610 -2 610 -15z m-72 -90 c-3 -14 -64 -16 -537 -16 -294 1 -536 3
-539 5 -22 23 42 26 544 26 477 0 535 -2 532 -15z"/>
        <path d="M1640 4073 c-164 -29 -220 -78 -260 -229 -12 -49 -38 -147 -57 -218
-19 -71 -31 -132 -26 -136 10 -9 204 -45 343 -65 277 -39 421 -48 640 -40 118
3 391 10 605 15 404 8 432 11 713 66 105 21 105 21 77 118 -8 28 -26 94 -40
146 -49 181 -57 205 -83 243 -34 51 -83 74 -203 98 -93 18 -149 19 -862 18
-629 -1 -777 -3 -847 -16z"/>
        <path d="M1275 2800 c-4 -6 11 -28 32 -48 44 -42 156 -84 263 -102 41 -6 384
-10 927 -10 934 0 932 0 1081 56 40 15 86 40 103 56 33 33 39 62 12 54 -79
-24 -208 -43 -408 -61 -245 -21 -1331 -21 -1582 0 -222 20 -304 32 -405 61 -9
3 -19 0 -23 -6z"/>
        <path d="M1246 2532 c-9 -15 15 -107 36 -138 47 -69 -44 -64 1211 -64 l1134 0
34 23 c40 26 66 75 75 140 l7 47 -1246 0 c-685 0 -1248 -3 -1251 -8z m386 -69
c2 -10 2 -26 0 -35 -3 -16 -18 -18 -133 -18 l-129 0 0 35 0 35 129 0 c114 0
129 -2 133 -17z m1983 -18 l0 -30 -130 0 c-117 0 -130 2 -133 18 -9 45 0 48
135 45 l128 -3 0 -30z"/>
        <path d="M737 1583 c-4 -3 -7 -154 -7 -335 l0 -330 29 -29 c28 -28 33 -29 121
-29 103 0 141 13 159 57 8 21 11 117 9 333 l-3 304 -32 7 c-18 3 -44 4 -57 2
l-25 -5 -1 -286 c0 -158 -4 -290 -9 -295 -5 -5 -24 -7 -42 -5 l-34 3 -2 295
c-1 162 -2 301 -2 308 -1 13 -92 18 -104 5z"/>
        <path d="M3783 1583 c-60 -3 -95 -8 -102 -17 -8 -9 -10 -117 -9 -357 l3 -344
52 -3 c49 -3 51 -2 57 25 3 15 5 150 4 298 -2 149 0 275 5 282 6 9 15 9 40 -2
44 -18 47 -38 46 -310 0 -126 0 -245 1 -262 l0 -33 55 0 55 0 2 293 3 292 42
3 43 3 2 -293 3 -293 53 -3 c48 -3 52 -1 52 20 4 159 -1 649 -6 661 -3 9 -13
18 -22 21 -34 11 -188 26 -237 24 -27 -1 -91 -4 -142 -5z"/>
        <path d="M4266 1569 c-3 -8 -4 -169 -3 -359 l2 -345 58 -3 57 -3 0 296 0 296
43 -3 42 -3 3 -292 2 -293 55 0 55 0 0 317 c0 318 -5 375 -37 387 -7 3 -71 8
-143 12 -106 6 -130 4 -134 -7z"/>
        <path d="M2698 1562 l-28 -3 0 -350 0 -349 54 0 c36 0 56 4 59 14 3 7 6 59 6
115 0 55 0 112 1 126 0 22 4 25 40 25 l40 0 0 -140 0 -140 60 0 60 0 0 147 c0
137 -1 148 -22 170 l-21 23 21 23 c20 21 22 34 22 150 0 124 -1 127 -27 157
-27 29 -30 30 -133 33 -58 1 -117 1 -132 -1z m172 -207 l0 -95 -39 0 c-38 0
-39 1 -44 43 -3 23 -4 56 -2 72 2 17 4 40 4 53 1 19 6 22 41 22 l40 0 0 -95z"/>
        <path d="M3371 1560 c-50 -8 -77 -34 -87 -85 -8 -46 1 -546 10 -568 15 -33 60
-47 156 -47 88 0 93 1 121 29 l29 29 0 176 0 176 -75 0 -75 0 0 -59 c0 -51 3
-59 20 -64 19 -5 21 -12 18 -89 l-3 -83 -40 0 -40 0 0 235 0 235 40 0 c39 0
40 -1 43 -37 l3 -38 53 0 53 0 7 83 c10 119 11 117 -98 116 -50 -1 -111 -5
-135 -9z"/>
        <path d="M406 1544 c-3 -9 -6 -166 -6 -350 l0 -335 128 3 127 3 3 53 3 52 -70
0 -71 0 0 100 c0 97 1 100 23 101 77 3 72 -1 75 62 l3 57 -51 0 -50 0 0 80 0
79 68 3 67 3 3 39 c2 21 0 42 -5 47 -5 5 -61 10 -125 13 -98 4 -117 3 -122
-10z"/>
        <path d="M1135 1544 c-19 -14 -20 -28 -22 -335 -1 -176 1 -327 4 -335 3 -10
21 -14 59 -14 l53 0 3 138 3 137 43 3 42 3 0 -141 0 -141 58 3 57 3 3 125 c3
142 0 162 -30 192 -18 18 -19 23 -6 32 8 6 20 21 26 33 17 32 15 200 -3 261
l-16 52 -127 0 c-97 -1 -132 -4 -147 -16z m185 -190 l0 -95 -42 3 -43 3 -3 79
c-2 44 -1 85 2 93 3 8 21 13 46 13 l40 0 0 -96z"/>
        <path d="M1535 1535 l-25 -24 0 -296 0 -297 29 -29 c28 -27 34 -29 115 -29
102 0 130 9 156 52 19 31 20 51 20 284 0 138 -3 265 -6 283 -4 17 -17 42 -30
56 -22 24 -29 25 -129 25 -99 0 -107 -2 -130 -25z m170 -325 l0 -235 -40 0
-40 0 -3 225 c-1 123 0 231 3 238 3 9 18 12 42 10 l38 -3 0 -235z"/>
        <path d="M1925 1536 c-33 -33 -37 -78 -33 -362 4 -317 2 -314 168 -314 79 0
92 3 117 24 24 21 28 33 33 95 l5 71 -57 0 -57 0 -3 -37 c-3 -37 -4 -38 -43
-38 l-40 0 0 235 0 235 40 0 c39 0 40 -1 43 -37 l3 -38 56 0 55 0 -4 76 c-5
105 -17 113 -156 114 -95 0 -105 -2 -127 -24z"/>
        <path d="M2311 1533 c-12 -14 -24 -36 -27 -47 -2 -12 -3 -156 -2 -321 l3 -300
55 0 55 0 2 95 c1 52 2 110 2 128 1 33 2 33 44 30 l42 -3 3 -127 3 -128 54 0
55 0 0 319 0 319 -26 31 -26 31 -108 0 c-106 0 -109 -1 -129 -27z m174 -188
l0 -100 -42 -3 -43 -3 0 99 c0 54 3 102 7 106 4 4 23 6 43 4 l35 -3 0 -100z"/>
        <path d="M24 637 c-3 -8 -4 -54 -2 -103 l3 -89 755 0 755 0 120 -70 c66 -38
143 -86 170 -106 100 -73 191 -117 430 -204 l100 -37 195 6 c193 7 195 7 230
34 44 35 85 59 230 137 63 33 185 101 270 150 l154 90 763 -4 763 -4 0 107 0
106 -2465 0 c-2042 0 -2467 -2 -2471 -13z m2971 -207 c0 -9 -41 -37 -95 -65
-52 -28 -132 -73 -177 -99 -96 -56 -167 -76 -278 -76 l-80 0 -125 76 c-69 42
-155 91 -192 110 -66 33 -83 47 -75 62 3 4 234 7 514 7 438 -1 508 -3 508 -15z"/>
    </g>
</svg>
